<?xml version="1.0" standalone="no"?>
<!DOCTYPE svg PUBLIC "-//W3C//DTD SVG 20010904//EN"
 "http://www.w3.org/TR/2001/REC-SVG-20010904/DTD/svg10.dtd">
<svg version="1.0" xmlns="http://www.w3.org/2000/svg"
 width="256.000000pt" height="256.000000pt" viewBox="0 0 256.000000 256.000000"
 preserveAspectRatio="xMidYMid meet">
<metadata>
Created by potrace 1.16, written by Peter Selinger 2001-2019
</metadata>
<g transform="translate(0.000000,256.000000) scale(0.100000,-0.100000)"
fill="#000000" stroke="none">
<path d="M0 1280 l0 -1280 1280 0 1280 0 0 1280 0 1280 -1280 0 -1280 0 0
-1280z m878 898 l2 -238 80 0 80 0 2 238 3 237 30 3 c22 2 58 -14 135 -61
l105 -63 3 -292 2 -292 -80 -40 -80 -40 0 -105 0 -105 160 0 160 0 0 146 0
146 34 34 c29 29 41 34 80 34 l46 0 0 140 c0 133 -1 140 -20 140 -11 0 -29 9
-40 20 -18 18 -20 33 -20 160 0 177 2 180 120 180 118 0 120 -3 120 -180 0
-127 -2 -142 -20 -160 -11 -11 -29 -20 -40 -20 -19 0 -20 -7 -20 -140 l0 -140
46 0 c39 0 51 -5 80 -34 l34 -34 0 -140 0 -140 48 -7 c76 -10 130 -42 164 -94
27 -42 29 -52 26 -117 -4 -88 -35 -141 -100 -173 -44 -21 -52 -21 -736 -21
-738 0 -731 0 -786 48 -51 46 -72 165 -41 239 36 85 89 113 215 113 l90 0 0
105 0 105 -80 40 -80 40 2 292 3 291 105 63 c77 47 113 63 135 62 l30 -3 3
-237z m-343 -278 c22 -8 26 -15 23 -42 -3 -32 -5 -33 -58 -41 -61 -8 -92 -25
-117 -64 -17 -25 -18 -73 -21 -620 l-3 -593 921 0 921 0 -3 593 c-3 547 -4
595 -21 620 -36 56 -57 62 -242 67 l-170 5 0 35 0 35 189 3 c186 2 189 2 232
-23 26 -15 54 -43 69 -69 l25 -43 0 -611 0 -612 32 0 c47 0 114 -44 143 -94
20 -33 25 -56 25 -106 0 -80 -31 -138 -94 -175 l-43 -25 -1063 0 -1063 0 -43
25 c-63 37 -94 95 -94 175 0 50 5 73 25 106 29 50 96 94 143 94 l32 0 0 612 0
611 25 43 c44 75 157 122 230 94z m1060 -40 l0 -35 -115 0 c-113 0 -115 0
-118 23 -7 50 -1 53 120 50 l113 -3 0 -35z"/>
<path d="M1640 2240 l0 -100 40 0 40 0 0 100 0 100 -40 0 -40 0 0 -100z"/>
<path d="M738 2264 l-58 -36 0 -229 0 -229 80 -40 80 -40 0 -175 c0 -217 -1
-215 120 -215 121 0 120 -2 120 215 l0 175 80 40 80 40 0 229 0 229 -57 36
-58 35 -5 -217 -5 -217 -155 0 -155 0 -5 217 -5 217 -57 -35z"/>
<path d="M1580 1680 c-18 -18 -20 -33 -20 -180 0 -200 0 -200 120 -200 120 0
120 0 120 200 0 200 0 200 -120 200 -67 0 -83 -3 -100 -20z"/>
<path d="M613 1329 c-111 -32 -107 -187 5 -219 50 -14 1274 -14 1324 0 115 32
115 188 0 220 -54 15 -62 13 -62 -16 0 -16 -13 -39 -34 -60 l-34 -34 -132 0
-132 0 -34 34 c-21 21 -34 44 -34 60 l0 26 -160 0 -160 0 0 -26 c0 -16 -13
-39 -34 -60 l-34 -34 -132 0 -132 0 -34 34 c-21 21 -34 44 -34 60 0 25 -2 26
-57 25 -32 0 -72 -5 -90 -10z"/>
<path d="M253 449 c-111 -32 -107 -187 5 -219 51 -14 1993 -14 2044 0 115 32
115 188 0 220 -22 6 -180 10 -389 10 l-353 0 0 -27 c0 -38 -33 -89 -72 -113
-30 -18 -51 -20 -208 -20 -157 0 -178 2 -208 20 -39 24 -72 75 -72 113 l0 27
-357 -1 c-197 0 -372 -5 -390 -10z"/>
<path d="M1090 449 c0 -50 51 -69 190 -69 115 0 165 11 180 40 21 39 15 40
-180 40 -128 0 -190 -3 -190 -11z"/>
</g>
</svg>
